<svg width="114" height="113" viewBox="0 0 114 113" fill="none" xmlns="http://www.w3.org/2000/svg">
<path fill-rule="evenodd" clip-rule="evenodd" d="M108.792 18.8333C108.792 14.671 103.401 13.1904 99.8341 12.211C99.5064 12.121 99.1942 12.0352 98.9028 11.952C94.4487 10.6794 88.1231 9.41667 80.5417 9.41667C72.4255 9.41667 65.7335 12.1193 61.1382 14.7454C60.4352 15.147 59.696 15.7019 59.0279 16.2034C58.1456 16.866 57.3875 17.4353 57 17.4353C56.6125 17.4353 55.8545 16.866 54.9722 16.2034C54.304 15.7019 53.5648 15.147 52.8619 14.7454C48.2666 12.1193 41.5745 9.41667 33.4584 9.41667C25.8769 9.41667 19.5514 10.6794 15.0972 11.952C14.8171 12.032 14.517 12.1146 14.202 12.2014C10.6512 13.1791 5.20837 14.6779 5.20837 18.8333V80.0417C5.20837 81.6736 6.05328 83.1887 7.4414 84.0471C9.6497 85.4115 12.5639 84.217 15.1464 83.1586C16.0474 82.789 16.908 82.4363 17.6841 82.2146C21.4695 81.1331 26.9148 80.0417 33.4584 80.0417C39.397 80.0417 43.8428 82.0008 47.1756 84.0518C48.0316 84.5786 48.897 85.2505 49.785 85.9398C51.98 87.6447 54.3153 89.4583 57 89.4583C59.6923 89.4583 62.0158 87.6513 64.2071 85.9473C65.096 85.2557 65.9633 84.5814 66.8244 84.0518C70.1575 82.0008 74.6031 80.0417 80.5417 80.0417C87.0853 80.0417 92.5305 81.1331 96.316 82.2146C97.1277 82.4467 98.0091 82.8186 98.924 83.2052C101.467 84.2792 104.268 85.4624 106.559 84.0471C107.947 83.1887 108.792 81.6736 108.792 80.0417V18.8333ZM16.1907 21.4582C15.2448 21.7601 14.625 22.6508 14.625 23.6437V70.1499C14.625 71.722 16.1359 72.8535 17.6641 72.4853C21.856 71.4758 27.2329 70.625 33.4584 70.625C41.7596 70.625 47.9572 73.4472 52.2917 76.1436V25.6871C51.3449 24.935 49.955 23.9299 48.1903 22.9213C44.5462 20.8391 39.4672 18.8333 33.4584 18.8333C25.9961 18.8333 19.9449 20.2598 16.1907 21.4582ZM80.5417 70.625C72.2404 70.625 66.0429 73.4472 61.7084 76.1436V25.6871C62.6552 24.935 64.0451 23.9299 65.8098 22.9213C69.454 20.8391 74.5329 18.8333 80.5417 18.8333C88.0039 18.8333 94.0551 20.2598 97.8095 21.4582C98.7554 21.7601 99.375 22.6508 99.375 23.6437V70.1499C99.375 71.722 97.8641 72.8535 96.3358 72.4853C92.144 71.4758 86.7671 70.625 80.5417 70.625Z" fill="#E6E6E6"/>
<path d="M10.328 96.091C9.26509 93.718 10.3274 90.9325 12.7006 89.8694C14.9052 88.8896 17.1876 88.0661 19.4831 87.3292C23.2915 86.1074 28.5575 84.75 33.4583 84.75C38.9525 84.75 43.6418 87.7111 47.0404 89.8571C47.2149 89.9673 47.3859 90.0751 47.5535 90.1806C51.5134 92.6699 54.1769 94.1667 57 94.1667C59.8198 94.1667 62.4673 92.6736 66.4223 90.1825C66.5848 90.0803 66.75 89.9758 66.9186 89.8689C70.3204 87.7177 75.0127 84.75 80.5417 84.75C85.4689 84.75 90.7338 86.1065 94.5405 87.3302C97.9587 88.4291 100.495 89.5158 101.146 89.802C103.529 90.8558 104.763 93.669 103.668 96.0994C102.608 98.4541 99.7794 99.4989 97.4324 98.4555C95.5533 97.6268 93.6125 96.9234 91.658 96.2948C88.1419 95.1644 83.9901 94.1667 80.5417 94.1667C77.9092 94.1667 75.3799 95.6667 71.1575 98.3293C67.6573 100.537 62.8256 103.583 57 103.583C51.1706 103.583 46.3232 100.533 42.8131 98.3237C38.5821 95.6606 36.0585 94.1667 33.4583 94.1667C30.0391 94.1667 25.8884 95.1634 22.3602 96.2958C20.3945 96.9262 18.4375 97.6278 16.5484 98.4644C14.1754 99.5262 11.3906 98.464 10.328 96.091Z" fill="#E6E6E6"/>
</svg>
