<svg width="114" height="114" viewBox="0 0 114 114" fill="none" xmlns="http://www.w3.org/2000/svg">
<path d="M51.3475 17.195C48.4861 17.1983 45.7403 18.3241 43.7 20.33L19.95 44.08C18.9433 45.078 18.1442 46.2655 17.5988 47.5741C17.0535 48.8827 16.7727 50.2864 16.7727 51.7038C16.7727 53.1212 17.0535 54.5248 17.5988 55.8334C18.1442 57.142 18.9433 58.3295 19.95 59.3275L21.0425 60.4675C23.0788 62.4806 25.8266 63.6096 28.69 63.6096C31.5534 63.6096 34.3013 62.4806 36.3375 60.4675L60.0875 36.7175C61.0941 35.7195 61.8935 34.532 62.4388 33.2234C62.9841 31.9148 63.2648 30.5112 63.2648 29.0938C63.2648 27.6764 62.9841 26.2727 62.4388 24.9641C61.8935 23.6555 61.0941 22.468 60.0875 21.47L58.995 20.33C56.9549 18.3241 54.2089 17.1983 51.3475 17.195ZM28.7375 56.4775C28.2619 56.4832 27.7899 56.3939 27.3493 56.2144C26.9088 56.0348 26.5086 55.7693 26.1725 55.4325L25.0325 54.2925C24.6921 53.9529 24.4221 53.5491 24.2379 53.105C24.0536 52.6609 23.9587 52.1849 23.9587 51.7038C23.9587 51.2231 24.0536 50.7466 24.2379 50.3025C24.4221 49.8584 24.6921 49.4546 25.0325 49.115L48.7825 25.365C49.4765 24.6748 50.4161 24.2872 51.395 24.2872C52.374 24.2872 53.3131 24.6748 54.0075 25.365L55.1 26.505C55.4487 26.8442 55.7256 27.2508 55.9132 27.6996C56.1009 28.1485 56.1959 28.6311 56.1925 29.1175C56.1949 29.5968 56.0994 30.0718 55.9113 30.5131C55.7237 30.9543 55.4473 31.3519 55.1 31.6825L31.35 55.4325C31.0051 55.7707 30.5967 56.0372 30.1483 56.2163C29.6999 56.3958 29.2204 56.4846 28.7375 56.4775Z" fill="#E6E6E6"/>
<path d="M85.12 50.4925C82.2529 50.5134 79.5079 51.6558 77.4725 53.675L53.7225 77.425C51.6981 79.4552 50.5609 82.2053 50.5609 85.0725C50.5609 87.9396 51.6981 90.6898 53.7225 92.72L54.8625 93.86C56.8908 95.8702 59.6306 96.9979 62.4863 96.9979C65.342 96.9979 68.0818 95.8702 70.11 93.86L93.86 70.11C95.8702 68.0818 96.9979 65.342 96.9979 62.4863C96.9979 59.6306 95.8702 56.8908 93.86 54.8625L92.72 53.7225C90.7041 51.6971 87.9771 50.5386 85.12 50.4925ZM62.51 89.8225C62.0303 89.8278 61.5543 89.7334 61.113 89.5454C60.6713 89.3573 60.2737 89.0797 59.945 88.73L58.805 87.6375C58.1148 86.9433 57.7272 86.004 57.7272 85.025C57.7272 84.0459 58.1148 83.1067 58.805 82.4125L82.555 58.6625C83.249 57.9723 84.1885 57.5847 85.1675 57.5847C86.1465 57.5847 87.0856 57.9723 87.78 58.6625L88.8725 59.8025C89.2197 60.1331 89.4962 60.5312 89.6838 60.972C89.8719 61.4132 89.9674 61.8882 89.965 62.3675C89.9683 62.8539 89.8733 63.3365 89.6857 63.7854C89.4981 64.2343 89.2212 64.6409 88.8725 64.98L65.1225 88.73C64.7815 89.0766 64.3749 89.3517 63.9265 89.5394C63.4776 89.7269 62.9964 89.8232 62.51 89.8225Z" fill="#E6E6E6"/>
<path d="M92.8625 65.5025C90.0011 65.5058 87.2551 66.6313 85.215 68.6375L69.0175 84.8825C68.011 85.8805 67.2115 87.0681 66.6662 88.3766C66.1209 89.6851 65.8402 91.0887 65.8402 92.5062C65.8402 93.9238 66.1209 95.3274 66.6662 96.6359C67.2115 97.9444 68.011 99.132 69.0175 100.13L70.11 101.27C72.1401 103.295 74.8904 104.432 77.7575 104.432C80.6246 104.432 83.3748 103.295 85.405 101.27L101.65 85.0725C103.663 83.0363 104.792 80.2883 104.792 77.425C104.792 74.5616 103.663 71.8137 101.65 69.7775L100.51 68.6375C98.4699 66.6313 95.7239 65.5058 92.8625 65.5025ZM77.7575 97.3275C76.7785 97.3135 75.8428 96.9221 75.145 96.235L74.0525 95C73.7119 94.6603 73.4421 94.2568 73.2578 93.8125C73.0735 93.3683 72.9785 92.8921 72.9785 92.4112C72.9785 91.9304 73.0735 91.4542 73.2578 91.01C73.4421 90.5657 73.7119 90.1622 74.0525 89.8225L90.25 73.6725C90.9444 72.9821 91.8835 72.5946 92.8625 72.5946C93.8415 72.5946 94.7805 72.9821 95.475 73.6725L96.5675 74.8125C96.9152 75.153 97.1912 75.5595 97.3797 76.0081C97.5683 76.4567 97.6652 76.9384 97.6652 77.425C97.6652 77.9116 97.5683 78.3933 97.3797 78.8419C97.1912 79.2905 96.9152 79.697 96.5675 80.0375L80.37 96.235C79.6784 96.9307 78.7388 97.3236 77.7575 97.3275Z" fill="#E6E6E6"/>
<path d="M36.2425 9.5C34.8008 9.48813 33.3716 9.76838 32.0411 10.3237C30.7105 10.8785 29.506 11.6974 28.5 12.73L12.3975 28.9275C11.3893 29.9298 10.5892 31.1211 10.0432 32.4335C9.49724 33.7459 9.21619 35.1533 9.21619 36.575C9.21619 37.9967 9.49724 39.4041 10.0432 40.7165C10.5892 42.029 11.3893 43.2203 12.3975 44.2225L13.49 45.3625C15.5262 47.3756 18.2741 48.5046 21.1375 48.5046C24.0008 48.5046 26.7487 47.3756 28.785 45.3625L44.9825 29.1175C45.9892 28.1195 46.7884 26.932 47.3337 25.6234C47.879 24.3148 48.1598 22.9112 48.1598 21.4938C48.1598 20.0764 47.879 18.6727 47.3337 17.3641C46.7884 16.0555 45.9892 14.868 44.9825 13.87L43.89 12.73C42.8935 11.7107 41.7041 10.9003 40.3911 10.346C39.0781 9.79118 37.6678 9.50381 36.2425 9.5ZM21.1375 41.325C20.6546 41.3321 20.1751 41.2433 19.7267 41.0638C19.2783 40.8842 18.8699 40.6182 18.525 40.28L17.4325 39.14C17.0849 38.7994 16.8088 38.3928 16.6203 37.9444C16.4318 37.4956 16.3347 37.0139 16.3347 36.5275C16.3347 36.0411 16.4318 35.559 16.6203 35.1106C16.8088 34.6622 17.0849 34.2556 17.4325 33.915L33.63 17.7175C33.9697 17.3769 34.3732 17.1071 34.8175 16.9228C35.2616 16.7385 35.7378 16.6435 36.2188 16.6435C36.6996 16.6435 37.1758 16.7385 37.62 16.9228C38.0643 17.1071 38.4678 17.3769 38.8075 17.7175L39.9475 19C40.2879 19.3396 40.5579 19.7434 40.7422 20.1875C40.9264 20.6316 41.0212 21.1081 41.0212 21.5888C41.0212 22.0695 40.9264 22.5459 40.7422 22.99C40.5579 23.4341 40.2879 23.8379 39.9475 24.1775L23.75 40.3275C23.4051 40.6657 22.9967 40.9317 22.5483 41.1113C22.0999 41.2908 21.6204 41.3796 21.1375 41.3725V41.325Z" fill="#E6E6E6"/>
<path d="M51.2049 37.05C50.7356 37.0395 50.2692 37.1269 49.836 37.307C49.4023 37.487 49.0114 37.7554 48.6874 38.095L37.9999 48.5925C37.6638 48.9198 37.3967 49.3116 37.2143 49.7439C37.0319 50.1761 36.938 50.6407 36.938 51.11C36.938 51.5793 37.0319 52.0438 37.2143 52.4761C37.3967 52.9083 37.6638 53.3002 37.9999 53.6275L60.3724 76C60.6964 76.3398 61.0873 76.6082 61.521 76.7882C61.9542 76.9681 62.4206 77.0556 62.8899 77.045C63.3592 77.0556 63.8257 76.9681 64.2589 76.7882C64.6926 76.6082 65.0835 76.3398 65.4074 76L75.9999 65.3125C76.3362 64.9852 76.6032 64.5933 76.7856 64.1611C76.968 63.7288 77.062 63.2643 77.062 62.795C77.062 62.3257 76.968 61.8611 76.7856 61.4289C76.6032 60.9966 76.3362 60.6048 75.9999 60.2775L53.7224 38C53.3904 37.6775 52.9957 37.4267 52.5625 37.2633C52.1293 37.0994 51.6671 37.0272 51.2049 37.05ZM45.7424 51.3L51.2049 45.8375L68.3524 62.985L62.8899 68.2575L45.7424 51.3Z" fill="#E6E6E6"/>
</svg>
