<svg width="46" height="51" viewBox="0 0 46 51" fill="none" xmlns="http://www.w3.org/2000/svg">
<path d="M11.75 25.3125H14.5625V28.125H31.4375V25.3125H34.25V22.5H37.0625V5.625H34.25V2.8125H31.4375V0H14.5625V2.8125H11.75V5.625H8.9375V22.5H11.75V25.3125ZM14.5625 11.25H17.375V8.4375H20.1875V5.625H25.8125V8.4375H28.625V11.25H31.4375V16.875H28.625V19.6875H25.8125V22.5H20.1875V19.6875H17.375V16.875H14.5625V11.25Z" fill="#E6E6E6"/>
<path d="M42.6875 36.5625V33.75H39.875V30.9375H6.125V33.75H3.3125V36.5625H0.5V50.625H6.125V42.1875H8.9375V39.375H11.75V36.5625H34.25V39.375H37.0625V42.1875H39.875V50.625H45.5V36.5625H42.6875Z" fill="#E6E6E6"/>
</svg>
